{"title":"Greek Quality Music (Se Proti Ektelesi) (In First Performance)","uid":4941750,"size":387455373,"categoryP":"audio","categoryS":"flac","magnet":"?xt=urn:btih:3c2f22af62a05481c1b7a56e0451341bb277a0ca&amp;dn=Greek+Quality+Music+%28Se+Proti+Ektelesi%29+%28In+First+Performance%29&amp;tr=udp%3A%2F%2Ftracker.openbittorrent.com%3A80&amp;tr=udp%3A%2F%2Fopen.demonii.com%3A1337&amp;tr=udp%3A%2F%2Ftracker.coppersurfer.tk%3A6969&amp;tr=udp%3A%2F%2Fexodus.desync.com%3A6969","seeders":1,"leechers":0,"uploader":"foteberg","files":24,"time":1244483780,"description":"Artist: Various                (EAC FLAC CUE Log Scans) Included\n\nTitle: Se Proti Ektelesi\n\n==========================================\n\n01 - Pantelis Thalasinos - Ta smyrneika Tragoudia\n\n02 - Sokratis Malamas - Tsigaro Atelioto\n\n03 - Nikos Ziogalas - Vasiliki\n\n04 - Malina Kana - Na Valo Ta Metaxota\n\n05 - Gianis Poulopoulos - Pia Nyhta Se 'Klepse\n\n06 - Kostas Karalis - Spasmeno Karavi\n\n07 - Peloma Mpokiou - Garyfale Garyfale\n\n08 - Paylos Sydiropoylos - Na M' Agapas\n\n09 - Isidora Sideri - Ke Tha Hatho\n\n10 - Vagelis Germanos - Kroyaziera\n\n11 - Gianis Poulopoulos - Naha Ti Dynami\n\n12 - Viky Mosholiou - Ta Therina Cinema\n\n13 - Rena Koumioti - Proti Fora\n\n14 - Poli Panou - Ti Sou 'Kana Ke Pinis\n\n\n\n\n\n\n\nEAC Log :\n\n\n\n\n\n\n\n\nExact Audio Copy V0.99 prebeta 4 from 23. January 2008\n\nEAC extraction logfile from 23. May 2009, 16:42\n\nVarious / Se Proti Ektelesi\n\nUsed drive  : HL-DT-STDVD-RAM GSA-H50L   Adapter: 0  ID: 0\n\nRead mode               : Secure\nUtilize accurate stream : Yes\nDefeat audio cache      : No\nMake use of C2 pointers : No\n\nRead offset correction                      : 102\nOverread into Lead-In and Lead-Out          : No\nFill up missing offset samples with silence : Yes\nDelete leading and trailing silent blocks   : No\nNull samples used in CRC calculations       : No\nUsed interface                              : Native Win32 interface for Win NT &amp; 2000\nGap handling                                : Not detected, thus appended to previous track\n\nUsed output format : Internal WAV Routines\nSample format      : 44.100 Hz; 16 Bit; Stereo\n\n\nTOC of the extracted CD\n\n     Track |   Start  |  Length  | Start sector | End sector \n    ---------------------------------------------------------\n        1  |  0:00.00 |  5:20.24 |         0    |    24023   \n        2  |  5:20.24 |  3:46.71 |     24024    |    41044   \n        3  |  9:07.20 |  2:57.67 |     41045    |    54386   \n        4  | 12:05.12 |  3:22.57 |     54387    |    69593   \n        5  | 15:27.69 |  2:38.71 |     69594    |    81514   \n        6  | 18:06.65 |  3:50.06 |     81515    |    98770   \n        7  | 21:56.71 |  3:40.03 |     98771    |   115273   \n        8  | 25:36.74 |  4:01.50 |    115274    |   133398   \n        9  | 29:38.49 |  3:53.67 |    133399    |   150940   \n       10  | 33:32.41 |  3:31.32 |    150941    |   166797   \n       11  | 37:03.73 |  2:59.12 |    166798    |   180234   \n       12  | 40:03.10 |  3:38.21 |    180235    |   196605   \n       13  | 43:41.31 |  2:17.22 |    196606    |   206902   \n       14  | 45:58.53 |  2:24.10 |    206903    |   217712   \n\n\nTrack  1\n\n     Filename F:musicSe Proti EktelesiTa smyrneika Tragoudia.wav\n\n     Peak level 97.7 %\n     Track quality 100.0 %\n     Test CRC 5954352B\n     Copy CRC 5954352B\n     Track not present in AccurateRip database\n     Copy OK\n\nTrack  2\n\n     Filename F:musicSe Proti EktelesiTsigaro Atelioto.wav\n\n     Peak level 97.7 %\n     Track quality 100.0 %\n     Test CRC C39DA759\n     Copy CRC C39DA759\n     Track not present in AccurateRip database\n     Copy OK\n\nTrack  3\n\n     Filename F:musicSe Proti EktelesiVasiliki.wav\n\n     Peak level 97.7 %\n     Track quality 100.0 %\n     Test CRC 6E6205D9\n     Copy CRC 6E6205D9\n     Track not present in AccurateRip database\n     Copy OK\n\nTrack  4\n\n     Filename F:musicSe Proti EktelesiNa Valo Ta Metaxota.wav\n\n     Peak level 97.7 %\n     Track quality 100.0 %\n     Test CRC 2F82F299\n     Copy CRC 2F82F299\n     Track not present in AccurateRip database\n     Copy OK\n\nTrack  5\n\n     Filename F:musicSe Proti EktelesiPia Nyhta Se 'Klepse.wav\n\n     Peak level 97.7 %\n     Track quality 100.0 %\n     Test CRC B1481D18\n     Copy CRC B1481D18\n     Track not present in AccurateRip database\n     Copy OK\n\nTrack  6\n\n     Filename F:musicSe Proti EktelesiSpasmeno Karavi.wav\n\n     Peak level 97.7 %\n     Track quality 100.0 %\n     Test CRC C46076C3\n     Copy CRC C46076C3\n     Track not present in AccurateRip database\n     Copy OK\n\nTrack  7\n\n     Filename F:musicSe Proti EktelesiGaryfale Garyfale.wav\n\n     Peak level 97.7 %\n     Track quality 100.0 %\n     Test CRC 5081D208\n     Copy CRC 5081D208\n     Track not present in AccurateRip database\n     Copy OK\n\nTrack  8\n\n     Filename F:musicSe Proti EktelesiNa M' Agapas.wav\n\n     Peak level 97.7 %\n     Track quality 100.0 %\n     Test CRC 4E05DC86\n     Copy CRC 4E05DC86\n     Track not present in AccurateRip database\n     Copy OK\n\nTrack  9\n\n     Filename F:musicSe Proti EktelesiKe Tha Hatho.wav\n\n     Peak level 97.7 %\n     Track quality 100.0 %\n     Test CRC 794AE1AF\n     Copy CRC 794AE1AF\n     Track not present in AccurateRip database\n     Copy OK\n\nTrack 10\n\n     Filename F:musicSe Proti EktelesiKroyaziera.wav\n\n     Peak level 97.7 %\n     Track quality 100.0 %\n     Test CRC 03B864D3\n     Copy CRC 03B864D3\n     Track not present in AccurateRip database\n     Copy OK\n\nTrack 11\n\n     Filename F:musicSe Proti EktelesiNaha Ti Dynami.wav\n\n     Peak level 97.7 %\n     Track quality 100.0 %\n     Test CRC 00D73EB9\n     Copy CRC 00D73EB9\n     Track not present in AccurateRip database\n     Copy OK\n\nTrack 12\n\n     Filename F:musicSe Proti EktelesiTa Therina Cinema.wav\n\n     Peak level 97.7 %\n     Track quality 100.0 %\n     Test CRC F5BC7FB7\n     Copy CRC F5BC7FB7\n     Track not present in AccurateRip database\n     Copy OK\n\nTrack 13\n\n     Filename F:musicSe Proti EktelesiProti Fora.wav\n\n     Peak level 97.7 %\n     Track quality 100.0 %\n     Test CRC 1433F146\n     Copy CRC 1433F146\n     Track not present in AccurateRip database\n     Copy OK\n\nTrack 14\n\n     Filename F:musicSe Proti EktelesiTi Sou 'Kana Ke Pinis.wav\n\n     Peak level 95.5 %\n     Track quality 99.9 %\n     Test CRC E8FBFD35\n     Copy CRC E8FBFD35\n     Track not present in AccurateRip database\n     Copy OK\n\n\nNone of the tracks are present in the AccurateRip database\n\nNo errors occurred\n\nEnd of status report\n\n\n\n\n\n\n\n\n\n\n\nThanks for seeding..!!\n\n\n\nEnjoy..!\n","torrent":{"xt":"urn:btih:3c2f22af62a05481c1b7a56e0451341bb277a0ca","amp;dn":"Greek+Quality+Music+%28Se+Proti+Ektelesi%29+%28In+First+Performance%29","amp;tr":["udp%3A%2F%2Ftracker.openbittorrent.com%3A80","udp%3A%2F%2Fopen.demonii.com%3A1337","udp%3A%2F%2Ftracker.coppersurfer.tk%3A6969","udp%3A%2F%2Fexodus.desync.com%3A6969"],"infoHash":"3c2f22af62a05481c1b7a56e0451341bb277a0ca","infoHashBuffer":{"type":"Buffer","data":[60,47,34,175,98,160,84,129,193,183,165,110,4,81,52,27,178,119,160,202]},"announce":[],"urlList":[]}}